<mxfile host="app.diagrams.net" agent="Mozilla/5.0 (Windows NT 10.0; Win64; x64) AppleWebKit/537.36 (KHTML, like Gecko) Chrome/131.0.0.0 Safari/537.36" version="24.8.4">
  <diagram name="Pagina-1" id="DQesXB0bPOJRr08b3EnR">
    <mxGraphModel dx="1434" dy="738" grid="1" gridSize="10" guides="1" tooltips="1" connect="1" arrows="1" fold="1" page="1" pageScale="1" pageWidth="827" pageHeight="1169" math="0" shadow="0">
      <root>
        <mxCell id="0" />
        <mxCell id="1" parent="0" />
        <mxCell id="97Zc8DlP31thwM9dTokK-18" value="Extensie (Geo)objecten" style="rounded=1;whiteSpace=wrap;html=1;verticalAlign=bottom;" vertex="1" parent="1">
          <mxGeometry x="80" y="310" width="464" height="170" as="geometry" />
        </mxCell>
        <mxCell id="97Zc8DlP31thwM9dTokK-17" value="Extensie Metadata" style="rounded=1;whiteSpace=wrap;html=1;verticalAlign=top;" vertex="1" parent="1">
          <mxGeometry x="360" y="150" width="220" height="140" as="geometry" />
        </mxCell>
        <mxCell id="97Zc8DlP31thwM9dTokK-1" value="Logboek" style="html=1;outlineConnect=0;whiteSpace=wrap;fillColor=#f5f5f5;shape=mxgraph.archimate3.application;appType=comp;archiType=square;fontColor=#333333;strokeColor=#666666;" vertex="1" parent="1">
          <mxGeometry x="120" y="370" width="150" height="75" as="geometry" />
        </mxCell>
        <mxCell id="97Zc8DlP31thwM9dTokK-2" value="Applicatie" style="html=1;outlineConnect=0;whiteSpace=wrap;fillColor=#f5f5f5;shape=mxgraph.archimate3.application;appType=comp;archiType=square;fontColor=#333333;strokeColor=#666666;" vertex="1" parent="1">
          <mxGeometry x="120" y="190" width="150" height="75" as="geometry" />
        </mxCell>
        <mxCell id="97Zc8DlP31thwM9dTokK-4" value="Open Telemetry" style="html=1;outlineConnect=0;whiteSpace=wrap;fillColor=#f5f5f5;shape=mxgraph.archimate3.application;appType=interface;archiType=square;fontColor=#333333;strokeColor=#666666;" vertex="1" parent="1">
          <mxGeometry x="120" y="290" width="150" height="40" as="geometry" />
        </mxCell>
        <mxCell id="97Zc8DlP31thwM9dTokK-5" value="" style="endArrow=none;html=1;rounded=0;entryX=0.5;entryY=1;entryDx=0;entryDy=0;entryPerimeter=0;" edge="1" parent="1" source="97Zc8DlP31thwM9dTokK-4" target="97Zc8DlP31thwM9dTokK-2">
          <mxGeometry width="50" height="50" relative="1" as="geometry">
            <mxPoint x="390" y="410" as="sourcePoint" />
            <mxPoint x="440" y="360" as="targetPoint" />
          </mxGeometry>
        </mxCell>
        <mxCell id="97Zc8DlP31thwM9dTokK-6" value="" style="endArrow=none;html=1;rounded=0;" edge="1" parent="1" source="97Zc8DlP31thwM9dTokK-4" target="97Zc8DlP31thwM9dTokK-1">
          <mxGeometry width="50" height="50" relative="1" as="geometry">
            <mxPoint x="390" y="410" as="sourcePoint" />
            <mxPoint x="440" y="360" as="targetPoint" />
          </mxGeometry>
        </mxCell>
        <mxCell id="97Zc8DlP31thwM9dTokK-7" value="PROV-O Mapping" style="html=1;outlineConnect=0;whiteSpace=wrap;fillColor=#f5f5f5;shape=mxgraph.archimate3.application;appType=serv;archiType=rounded;fontColor=#333333;strokeColor=#666666;" vertex="1" parent="1">
          <mxGeometry x="400" y="185" width="150" height="75" as="geometry" />
        </mxCell>
        <mxCell id="97Zc8DlP31thwM9dTokK-8" value="" style="endArrow=none;html=1;rounded=0;entryX=0;entryY=0.5;entryDx=0;entryDy=0;entryPerimeter=0;exitX=1;exitY=0.25;exitDx=0;exitDy=0;exitPerimeter=0;" edge="1" parent="1" source="97Zc8DlP31thwM9dTokK-1" target="97Zc8DlP31thwM9dTokK-7">
          <mxGeometry width="50" height="50" relative="1" as="geometry">
            <mxPoint x="390" y="410" as="sourcePoint" />
            <mxPoint x="440" y="360" as="targetPoint" />
          </mxGeometry>
        </mxCell>
        <mxCell id="97Zc8DlP31thwM9dTokK-9" value="NL-SBB" style="html=1;outlineConnect=0;whiteSpace=wrap;fillColor=#f5f5f5;shape=mxgraph.archimate3.application;appType=passive;archiType=square;fontColor=#333333;strokeColor=#666666;" vertex="1" parent="1">
          <mxGeometry x="600" y="160" width="150" height="75" as="geometry" />
        </mxCell>
        <mxCell id="97Zc8DlP31thwM9dTokK-10" value="DCAT-AP-NL" style="html=1;outlineConnect=0;whiteSpace=wrap;fillColor=#f5f5f5;shape=mxgraph.archimate3.application;appType=passive;archiType=square;fontColor=#333333;strokeColor=#666666;" vertex="1" parent="1">
          <mxGeometry x="600" y="255" width="150" height="75" as="geometry" />
        </mxCell>
        <mxCell id="97Zc8DlP31thwM9dTokK-11" value="..." style="html=1;outlineConnect=0;whiteSpace=wrap;fillColor=#f5f5f5;shape=mxgraph.archimate3.application;appType=passive;archiType=square;fontColor=#333333;strokeColor=#666666;" vertex="1" parent="1">
          <mxGeometry x="600" y="345" width="150" height="75" as="geometry" />
        </mxCell>
        <mxCell id="97Zc8DlP31thwM9dTokK-12" value="" style="endArrow=none;dashed=1;html=1;dashPattern=1 3;strokeWidth=2;rounded=0;entryX=0;entryY=0.5;entryDx=0;entryDy=0;entryPerimeter=0;exitX=1;exitY=0.5;exitDx=0;exitDy=0;exitPerimeter=0;" edge="1" parent="1" source="97Zc8DlP31thwM9dTokK-7" target="97Zc8DlP31thwM9dTokK-9">
          <mxGeometry width="50" height="50" relative="1" as="geometry">
            <mxPoint x="390" y="385" as="sourcePoint" />
            <mxPoint x="440" y="335" as="targetPoint" />
          </mxGeometry>
        </mxCell>
        <mxCell id="97Zc8DlP31thwM9dTokK-13" value="" style="endArrow=none;dashed=1;html=1;dashPattern=1 3;strokeWidth=2;rounded=0;entryX=0;entryY=0.5;entryDx=0;entryDy=0;entryPerimeter=0;exitX=1;exitY=0.5;exitDx=0;exitDy=0;exitPerimeter=0;" edge="1" parent="1" source="97Zc8DlP31thwM9dTokK-7" target="97Zc8DlP31thwM9dTokK-10">
          <mxGeometry width="50" height="50" relative="1" as="geometry">
            <mxPoint x="475" y="195" as="sourcePoint" />
            <mxPoint x="635" y="140" as="targetPoint" />
          </mxGeometry>
        </mxCell>
        <mxCell id="97Zc8DlP31thwM9dTokK-14" value="" style="endArrow=none;dashed=1;html=1;dashPattern=1 3;strokeWidth=2;rounded=0;entryX=0;entryY=0.5;entryDx=0;entryDy=0;entryPerimeter=0;exitX=1;exitY=0.5;exitDx=0;exitDy=0;exitPerimeter=0;" edge="1" parent="1" source="97Zc8DlP31thwM9dTokK-7" target="97Zc8DlP31thwM9dTokK-11">
          <mxGeometry width="50" height="50" relative="1" as="geometry">
            <mxPoint x="475" y="195" as="sourcePoint" />
            <mxPoint x="455" y="140" as="targetPoint" />
          </mxGeometry>
        </mxCell>
        <mxCell id="97Zc8DlP31thwM9dTokK-15" value="Register" style="html=1;outlineConnect=0;whiteSpace=wrap;fillColor=#f5f5f5;shape=mxgraph.archimate3.application;appType=comp;archiType=square;fontColor=#333333;strokeColor=#666666;" vertex="1" parent="1">
          <mxGeometry x="370" y="370" width="150" height="75" as="geometry" />
        </mxCell>
        <mxCell id="97Zc8DlP31thwM9dTokK-16" value="" style="endArrow=none;dashed=1;html=1;rounded=0;entryX=0;entryY=0.5;entryDx=0;entryDy=0;entryPerimeter=0;" edge="1" parent="1" source="97Zc8DlP31thwM9dTokK-1" target="97Zc8DlP31thwM9dTokK-15">
          <mxGeometry width="50" height="50" relative="1" as="geometry">
            <mxPoint x="390" y="410" as="sourcePoint" />
            <mxPoint x="440" y="360" as="targetPoint" />
          </mxGeometry>
        </mxCell>
      </root>
    </mxGraphModel>
  </diagram>
</mxfile>
